<?xml version="1.0" encoding="UTF-8" standalone="no"?>
<!-- Creator: CorelDRAW 2019 (64 Bit) -->

<svg
   xmlns:dc="http://purl.org/dc/elements/1.1/"
   xmlns:cc="http://creativecommons.org/ns#"
   xmlns:rdf="http://www.w3.org/1999/02/22-rdf-syntax-ns#"
   xmlns:svg="http://www.w3.org/2000/svg"
   xmlns="http://www.w3.org/2000/svg"
   xmlns:sodipodi="http://sodipodi.sourceforge.net/DTD/sodipodi-0.dtd"
   xmlns:inkscape="http://www.inkscape.org/namespaces/inkscape"
   xml:space="preserve"
   width="24.8298cm"
   height="10.002cm"
   version="1.1"
   style="shape-rendering:geometricPrecision; text-rendering:geometricPrecision; image-rendering:optimizeQuality; fill-rule:evenodd; clip-rule:evenodd"
   viewBox="0 0 2980.21 1200.5"
   id="svg128"
   sodipodi:docname="Atualize Logo nome only.svg"
   inkscape:version="0.92.4 (unknown)"><metadata
   id="metadata132"><rdf:RDF><cc:Work
       rdf:about=""><dc:format>image/svg+xml</dc:format><dc:type
         rdf:resource="http://purl.org/dc/dcmitype/StillImage" /><dc:title></dc:title></cc:Work></rdf:RDF></metadata><sodipodi:namedview
   pagecolor="#ffffff"
   bordercolor="#666666"
   borderopacity="1"
   objecttolerance="10"
   gridtolerance="10"
   guidetolerance="10"
   inkscape:pageopacity="0"
   inkscape:pageshadow="2"
   inkscape:window-width="2560"
   inkscape:window-height="1019"
   id="namedview130"
   showgrid="false"
   inkscape:zoom="0.73525563"
   inkscape:cx="275.7589"
   inkscape:cy="88.041333"
   inkscape:window-x="0"
   inkscape:window-y="0"
   inkscape:window-maximized="1"
   inkscape:current-layer="svg128" />
 <defs
   id="defs4">
  <style
   type="text/css"
   id="style2">
   <![CDATA[
    .fil5 {fill:#FEFEFE}
    .fil2 {fill:#CD3539}
    .fil3 {fill:#953638}
    .fil0 {fill:#1A3161}
    .fil4 {fill:#FEFEFE;fill-rule:nonzero}
    .fil1 {fill:#1A3161;fill-rule:nonzero}
    .fil6 {fill:#1A3161;fill-rule:nonzero}
   ]]>
  </style>
 
  
  
 
   
   
   
   
   
   
   
   
   
   
   
   
   
   
   
   
   
   
   
   
   
   
   
   
   
   
   
   
   
   
   
   
   
   
   
   
   
  </defs>
 <g
   id="g51"
   transform="matrix(1.2385531,0,0,1.2385531,-833.14195,190.61706)">
    <path
   class="fil0"
   d="m 2937.47,55.99 v 0 c -7.19,-0.01 -14.23,1.87 -21.08,5.67 -6.86,3.82 -12.21,9.25 -16.06,16.35 -3.84,7.08 -5.77,14.47 -5.78,22.18 -0.01,7.61 1.87,14.94 5.65,21.96 3.78,7.05 9.06,12.52 15.85,16.4 6.78,3.91 13.88,5.86 21.31,5.87 7.42,0.01 14.51,-1.92 21.32,-5.81 6.79,-3.87 12.08,-9.32 15.85,-16.36 3.78,-7.02 5.68,-14.34 5.69,-21.95 0.01,-7.7 -1.91,-15.11 -5.71,-22.19 C 2970.7,71 2965.36,65.56 2958.53,61.72 2951.67,57.9 2944.66,56 2937.48,56 Z m -0.01,7.32 v 0 c -6.03,-0.01 -11.89,1.58 -17.59,4.76 -5.69,3.17 -10.15,7.73 -13.39,13.62 -3.22,5.92 -4.83,12.08 -4.84,18.5 -0.01,6.35 1.57,12.46 4.72,18.3 3.15,5.85 7.56,10.41 13.24,13.69 5.68,3.27 11.58,4.92 17.77,4.92 6.15,0.01 12.09,-1.63 17.77,-4.88 5.68,-3.26 10.08,-7.81 13.23,-13.65 3.15,-5.83 4.73,-11.93 4.74,-18.28 0.01,-6.43 -1.57,-12.59 -4.77,-18.52 -3.19,-5.9 -7.64,-10.47 -13.36,-13.66 -5.71,-3.2 -11.56,-4.8 -17.52,-4.8 z"
   id="path7"
   inkscape:connector-curvature="0"
   style="fill:#1a3161" />
    <g
   id="g49">
     <g
   id="g45">
      <path
   class="fil1"
   d="m 932.5,605.86 -0.01,10.7 c -6.88,3.92 -14.83,5.87 -23.85,5.86 -7.3,-0.01 -13.52,-1.55 -18.61,-4.62 -5.09,-3.07 -9.12,-7.29 -12.1,-12.67 -2.96,-5.39 -4.44,-11.2 -4.43,-17.46 0.01,-9.94 3.42,-18.3 10.24,-25.07 6.82,-6.77 15.22,-10.14 25.2,-10.13 6.89,0.01 14.54,1.89 22.95,5.63 l -0.01,10.49 c -7.67,-4.54 -15.16,-6.82 -22.48,-6.82 -7.51,-0.01 -13.75,2.45 -18.73,7.39 -4.96,4.93 -7.45,11.1 -7.45,18.53 -0.01,7.5 2.42,13.66 7.3,18.5 4.86,4.82 11.11,7.25 18.7,7.26 7.95,0.01 15.72,-2.51 23.29,-7.57 z"
   id="path9"
   inkscape:connector-curvature="0"
   style="fill:#1a3161;fill-rule:nonzero" />
      <path
   id="1"
   class="fil1"
   d="m 1029.71,552.61 c 10.12,0.01 18.55,3.36 25.27,10.05 6.74,6.67 10.09,15.05 10.08,25.09 -0.01,10.06 -3.42,18.39 -10.22,24.96 -6.82,6.58 -15.4,9.87 -25.73,9.86 -9.89,-0.01 -18.1,-3.32 -24.68,-9.92 -6.58,-6.59 -9.85,-14.86 -9.84,-24.78 0.01,-10.19 3.34,-18.62 9.96,-25.27 6.64,-6.68 15.02,-10 25.15,-9.98 z m 0.34,9.3 c -7.5,-0.01 -13.66,2.42 -18.48,7.29 -4.83,4.88 -7.26,11.1 -7.27,18.68 -0.01,7.36 2.41,13.48 7.24,18.37 4.83,4.88 10.89,7.33 18.16,7.33 7.3,0.01 13.41,-2.46 18.31,-7.44 4.89,-4.98 7.34,-11.17 7.35,-18.58 0.01,-7.23 -2.42,-13.3 -7.3,-18.23 -4.88,-4.94 -10.89,-7.41 -18,-7.42 z"
   inkscape:connector-curvature="0"
   style="fill:#1a3161;fill-rule:nonzero" />
      <polygon
   id="2"
   class="fil1"
   points="1138.91,553.75 1160.55,581.78 1182.14,553.81 1191.01,553.82 1190.93,621.98 1181.51,621.97 1181.58,568.93 1161.39,595.26 1159.64,595.26 1139.28,568.88 1139.21,621.91 1129.79,621.9 1129.88,553.74 "
   style="fill:#1a3161;fill-rule:nonzero" />
      <path
   id="3"
   class="fil1"
   d="m 1304.21,553.96 9.42,0.01 -0.05,38.69 c -0.01,5.25 -0.38,9.2 -1.12,11.86 -0.74,2.68 -1.64,4.89 -2.73,6.65 -1.07,1.79 -2.41,3.36 -3.97,4.76 -5.21,4.64 -12.01,6.97 -20.39,6.96 -8.54,-0.01 -15.39,-2.34 -20.55,-6.95 -1.57,-1.43 -2.9,-3.03 -3.97,-4.82 -1.07,-1.76 -1.96,-3.95 -2.66,-6.52 -0.7,-2.56 -1.05,-6.59 -1.05,-12.09 l 0.05,-38.61 9.42,0.01 -0.05,38.69 c -0.01,6.41 0.69,10.88 2.1,13.38 1.41,2.5 3.55,4.52 6.43,6.04 2.89,1.52 6.28,2.28 10.19,2.28 5.58,0.01 10.13,-1.51 13.64,-4.52 1.85,-1.63 3.18,-3.55 4,-5.76 0.82,-2.21 1.23,-6.01 1.23,-11.37 l 0.05,-38.69 z"
   inkscape:connector-curvature="0"
   style="fill:#1a3161;fill-rule:nonzero" />
      <polygon
   id="4"
   class="fil1"
   points="1441.06,554.13 1440.98,622.29 1432.88,622.28 1389.13,569.74 1389.07,622.23 1380.22,622.22 1380.3,554.06 1387.93,554.07 1432.06,607.06 1432.12,554.12 "
   style="fill:#1a3161;fill-rule:nonzero" />
      <polygon
   id="5"
   class="fil1"
   points="1508.5,622.38 1508.59,554.22 1518.01,554.23 1517.93,622.39 "
   style="fill:#1a3161;fill-rule:nonzero" />
      <path
   id="6"
   class="fil1"
   d="m 1642.4,606.76 -0.01,10.7 c -6.88,3.92 -14.83,5.87 -23.84,5.86 -7.31,-0.01 -13.52,-1.55 -18.61,-4.62 -5.09,-3.07 -9.12,-7.29 -12.1,-12.67 -2.96,-5.39 -4.44,-11.2 -4.43,-17.46 0.01,-9.94 3.42,-18.3 10.24,-25.07 6.82,-6.77 15.22,-10.14 25.2,-10.13 6.89,0.01 14.54,1.89 22.95,5.63 l -0.01,10.49 c -7.67,-4.54 -15.16,-6.82 -22.48,-6.82 -7.51,-0.01 -13.75,2.45 -18.73,7.39 -4.96,4.93 -7.45,11.1 -7.45,18.53 -0.01,7.5 2.42,13.66 7.3,18.5 4.86,4.82 11.11,7.25 18.7,7.26 7.95,0.01 15.72,-2.51 23.29,-7.57 z"
   inkscape:connector-curvature="0"
   style="fill:#1a3161;fill-rule:nonzero" />
      <path
   id="7"
   class="fil1"
   d="m 1730.73,554.1 6.6,0.01 29.3,68.6 -9.62,-0.01 -8.69,-20.2 -27.96,-0.03 -8.21,20.18 -9.65,-0.01 28.22,-68.53 z m 13.86,39.7 -10.63,-24.72 -9.94,24.69 z"
   inkscape:connector-curvature="0"
   style="fill:#1a3161;fill-rule:nonzero" />
      <path
   id="8"
   class="fil1"
   d="m 1859.68,623.62 -0.24,0.8 c 1.69,0.42 3.01,1.24 3.97,2.45 0.94,1.2 1.42,2.57 1.42,4.1 0,2.49 -0.97,4.58 -2.88,6.33 -1.91,1.75 -4.97,2.61 -9.17,2.6 -1.18,0 -2.18,-0.08 -3.07,-0.25 l 0.01,-5.54 c 1.6,0.13 2.59,0.2 3.01,0.2 1.78,0 3.17,-0.35 4.16,-1.06 0.6,-0.42 0.9,-0.98 0.9,-1.65 0,-0.78 -0.32,-1.43 -0.96,-1.95 -0.64,-0.52 -1.82,-0.79 -3.54,-0.79 -0.34,0 -0.7,0.05 -1.07,0.15 l 2.02,-5.74 c -4.96,-0.59 -9.29,-2.01 -12.97,-4.27 -5.12,-3.1 -9.16,-7.34 -12.09,-12.7 -2.94,-5.35 -4.41,-11.17 -4.4,-17.43 0.01,-9.94 3.42,-18.3 10.24,-25.07 6.82,-6.77 15.22,-10.14 25.2,-10.13 6.89,0.01 14.54,1.89 22.95,5.63 l -0.01,10.49 c -7.67,-4.54 -15.16,-6.82 -22.48,-6.82 -7.51,-0.01 -13.75,2.45 -18.73,7.39 -4.96,4.93 -7.45,11.1 -7.45,18.53 -0.01,7.5 2.42,13.66 7.3,18.5 4.86,4.82 11.11,7.25 18.7,7.26 7.95,0.01 15.72,-2.51 23.29,-7.57 l -0.01,10.7 c -6.91,3.92 -14.89,5.87 -23.91,5.86 h -0.19 z"
   inkscape:connector-curvature="0"
   style="fill:#1a3161;fill-rule:nonzero" />
      <path
   id="9"
   class="fil1"
   d="m 1969.74,554.4 6.6,0.01 29.3,68.6 -9.62,-0.01 -8.69,-20.2 -27.96,-0.03 -8.21,20.18 -9.65,-0.01 28.22,-68.53 z m 13.86,39.7 -10.63,-24.72 -9.94,24.69 z m 3.31,-57.87 c -0.04,3.93 -0.92,7 -2.64,9.21 -1.32,1.71 -2.95,2.58 -4.92,2.58 -1.71,0 -4.02,-0.66 -6.94,-1.96 -2.9,-1.3 -5.09,-1.95 -6.55,-1.96 -0.82,0 -1.52,0.32 -2.12,0.96 -0.59,0.65 -0.95,1.63 -1.08,2.93 h -3.94 c 0.5,-4.58 1.42,-7.65 2.73,-9.17 1.33,-1.55 2.99,-2.31 5,-2.31 1.81,0 4.77,0.87 8.89,2.59 2.1,0.89 3.6,1.33 4.52,1.33 0.88,0 1.62,-0.31 2.23,-0.95 0.61,-0.63 1.02,-1.71 1.25,-3.25 h 3.55 z"
   inkscape:connector-curvature="0"
   style="fill:#1a3161;fill-rule:nonzero" />
      <path
   id="10"
   class="fil1"
   d="m 2098.54,553.96 c 10.12,0.01 18.55,3.36 25.27,10.05 6.74,6.67 10.09,15.05 10.08,25.09 -0.01,10.06 -3.42,18.38 -10.22,24.96 -6.82,6.58 -15.4,9.87 -25.73,9.86 -9.89,-0.01 -18.1,-3.32 -24.68,-9.92 -6.58,-6.59 -9.85,-14.86 -9.84,-24.78 0.01,-10.19 3.34,-18.62 9.96,-25.27 6.64,-6.68 15.02,-10 25.15,-9.98 z m 0.34,9.3 c -7.5,-0.01 -13.65,2.42 -18.48,7.29 -4.83,4.88 -7.26,11.1 -7.27,18.68 -0.01,7.36 2.41,13.48 7.24,18.37 4.83,4.88 10.89,7.32 18.16,7.33 7.3,0.01 13.41,-2.46 18.31,-7.44 4.89,-4.98 7.34,-11.17 7.35,-18.58 0.01,-7.23 -2.42,-13.3 -7.3,-18.23 -4.88,-4.94 -10.89,-7.41 -18,-7.42 z"
   inkscape:connector-curvature="0"
   style="fill:#1a3161;fill-rule:nonzero" />
      <polygon
   id="11"
   class="fil1"
   points="2257.4,555.16 2266.85,555.17 2286.51,603.07 2306.1,555.22 2315.56,555.24 2287.69,623.66 2285.53,623.65 "
   style="fill:#1a3161;fill-rule:nonzero" />
      <polygon
   id="12"
   class="fil1"
   points="2376.1,623.47 2376.18,555.31 2385.61,555.32 2385.52,623.48 "
   style="fill:#1a3161;fill-rule:nonzero" />
      <path
   id="13"
   class="fil1"
   d="m 2469.75,594.97 -7.12,-4.51 c -4.48,-2.85 -7.67,-5.66 -9.55,-8.4 -1.89,-2.75 -2.83,-5.94 -2.83,-9.52 0.01,-5.38 1.81,-9.74 5.4,-13.1 3.58,-3.35 8.24,-5.02 13.96,-5.02 5.48,0.01 10.51,1.62 15.07,4.83 l -0.01,11.09 c -4.72,-4.75 -9.8,-7.12 -15.25,-7.13 -3.06,0 -5.57,0.73 -7.55,2.21 -1.97,1.48 -2.97,3.36 -2.97,5.66 0,2.05 0.72,3.97 2.18,5.75 1.45,1.78 3.79,3.67 7.01,5.64 l 7.16,4.42 c 7.98,4.98 11.99,11.34 11.98,19.02 -0.01,5.48 -1.78,9.93 -5.3,13.35 -3.53,3.41 -8.1,5.12 -13.74,5.11 -6.47,-0.01 -12.38,-2.09 -17.7,-6.25 l 0.02,-12.39 c 5.06,6.68 10.94,10.04 17.58,10.05 2.95,0 5.4,-0.84 7.36,-2.56 1.96,-1.71 2.94,-3.84 2.94,-6.43 0,-4.16 -2.87,-8.11 -8.62,-11.83 z"
   inkscape:connector-curvature="0"
   style="fill:#1a3161;fill-rule:nonzero" />
      <path
   id="14"
   class="fil1"
   d="m 2596.64,555.59 9.42,0.01 -0.05,38.69 c -0.01,5.25 -0.38,9.2 -1.12,11.86 -0.74,2.68 -1.64,4.89 -2.73,6.65 -1.07,1.79 -2.41,3.36 -3.97,4.76 -5.21,4.64 -12.01,6.97 -20.39,6.95 -8.54,-0.01 -15.39,-2.33 -20.55,-6.95 -1.57,-1.43 -2.9,-3.03 -3.97,-4.82 -1.07,-1.76 -1.96,-3.95 -2.66,-6.51 -0.7,-2.56 -1.05,-6.59 -1.05,-12.09 l 0.05,-38.61 9.42,0.01 -0.05,38.69 c -0.01,6.41 0.69,10.88 2.1,13.38 1.41,2.5 3.55,4.52 6.43,6.04 2.89,1.52 6.28,2.28 10.19,2.28 5.58,0.01 10.13,-1.51 13.64,-4.52 1.85,-1.63 3.18,-3.55 4,-5.76 0.82,-2.21 1.23,-6.01 1.23,-11.37 l 0.05,-38.69 z"
   inkscape:connector-curvature="0"
   style="fill:#1a3161;fill-rule:nonzero" />
      <path
   id="15"
   class="fil1"
   d="m 2690.99,555.3 6.6,0.01 29.3,68.6 -9.62,-0.01 -8.69,-20.2 -27.96,-0.04 -8.21,20.18 -9.65,-0.01 28.22,-68.53 z m 13.86,39.7 -10.63,-24.72 -9.94,24.69 z"
   inkscape:connector-curvature="0"
   style="fill:#1a3161;fill-rule:nonzero" />
      <polygon
   id="16"
   class="fil1"
   points="2787.51,623.99 2787.6,555.83 2797.02,555.84 2796.94,615.11 2826.46,615.14 2826.45,624.04 "
   style="fill:#1a3161;fill-rule:nonzero" />
      <path
   class="fil2"
   d="m 2261.27,79.74 -0.21,-2.58 c -0.59,-8.55 -3.6,-15.9 -9.23,-22.2 -5.96,-6.66 -12.99,-10.25 -21.79,-10.25 l -41.06,-0.03 -0.05,48.14 41.05,0.04 c 8.8,0.01 15.83,3.58 21.79,10.25 3.19,3.56 5.24,6.9 6.59,10.25 0.26,0.41 0.59,0.68 1.22,0.68 0.63,0 1.37,-0.58 1.45,-1.33 l 0.25,-32.97 z m -0.25,32.97 z"
   id="path27"
   inkscape:connector-curvature="0"
   style="fill:#cd3539" />
      <path
   class="fil0"
   d="m 2066.45,22.71 -0.31,423.47 c 1.81,7.46 7.92,13.32 15.67,14.98 l 56.46,0.04 0.29,-403.9 c 0.01,-9.7 -3.06,-17.81 -10.17,-24.7 -6.84,-6.63 -14.87,-9.86 -24.53,-9.87 l -37.4,-0.02 z"
   id="path29"
   inkscape:connector-curvature="0"
   style="fill:#1a3161" />
      <path
   class="fil0"
   d="m 2330.43,461.47 c 82.98,0.06 165.97,0.12 248.95,0.18 0,0 0,0 0,0 6.21,0 12.42,0.01 18.64,0.01 -6.21,-0.01 -12.43,-0.01 -18.64,-0.01 10.28,-1.15 18.31,-9.27 18.65,-19.24 0.01,-18.07 0.02,-36.14 0.04,-54.2 l -178.8,-0.22 c 63.42,-69.17 121.61,-135.09 181.12,-201.79 6.17,-6.91 8.2,-12.73 8.21,-21.81 0.01,-10.56 0.01,-16.16 0.02,-26.72 -0.46,-10.43 -9.36,-18.81 -20.42,-19.16 -82.98,-0.06 -165.76,1.9 -248.75,1.84 0,0 0,0 0,0 v 0 c -10.28,1.14 -18.32,9.27 -18.65,19.24 l -0.01,17.4 h -0.02 l -0.04,36.8 176.78,0.22 c -60.59,66.14 -119.19,132.42 -179.27,199.77 -6.17,6.91 -8.2,12.73 -8.21,21.81 -0.01,10.56 -0.01,16.16 -0.02,26.72 0.46,10.44 9.36,18.81 20.42,19.16 z"
   id="path31"
   inkscape:connector-curvature="0"
   style="fill:#1a3161" />
      <path
   class="fil0"
   d="m 2189.01,120.05 -0.67,326.18 c 1.8,7.51 7.91,13.41 15.65,15.08 l 56.4,0.05 0.65,-306.48 c 0,-9.77 -3.05,-17.93 -10.16,-24.87 -6.83,-6.67 -14.85,-9.93 -24.51,-9.94 L 2189,120.05 Z"
   id="path33"
   inkscape:connector-curvature="0"
   style="fill:#1a3161" />
      <path
   class="fil0"
   d="m 1847.25,119.59 c 62.49,0.08 117.08,33.79 146.69,84 31.91,54.09 21.85,117.03 21.78,176.98 l -0.09,77.89 c -59.66,-0.08 -183.72,10.16 -233.79,-10.6 -61.87,-25.65 -105.36,-86.71 -105.28,-157.89 0.12,-94.22 76.54,-170.5 170.69,-170.39 z m 95.08,251.62 -0.02,15.32 -6.04,0.16 c -28.75,0.78 -101.31,3.55 -126.49,-6.89 -36.33,-15.07 -60,-50.56 -59.95,-89.91 0.06,-53.66 43.56,-97.07 97.18,-97 34.44,0.04 66.05,18.21 83.55,47.86 19.95,33.82 11.82,92.14 11.77,130.46 z"
   id="path35"
   inkscape:connector-curvature="0"
   style="fill:#1a3161" />
      <path
   class="fil0"
   d="m 942.03,118.45 c 62.49,0.08 117.07,33.79 146.69,84 31.91,54.09 21.85,117.03 21.78,176.98 l -0.1,77.89 c -59.66,-0.07 -183.72,10.16 -233.79,-10.6 -61.87,-25.65 -105.36,-86.71 -105.28,-157.89 0.12,-94.22 76.54,-170.5 170.69,-170.39 z m 95.08,251.62 -0.02,15.32 -6.04,0.16 c -28.75,0.78 -101.31,3.55 -126.49,-6.89 -36.33,-15.06 -60,-50.56 -59.95,-89.91 0.07,-53.66 43.56,-97.07 97.18,-97 34.44,0.04 66.05,18.2 83.55,47.86 19.95,33.82 11.82,92.14 11.77,130.46 z"
   id="path37"
   inkscape:connector-curvature="0"
   style="fill:#1a3161" />
      <path
   class="fil0"
   d="m 1287.4,459.57 0.03,-51.07 -18.11,-0.01 c -21.75,-0.02 -36.45,-10.4 -36.44,-31.87 l 0.12,-184.98 19.19,0.02 c 9.87,0.01 17.99,-3.29 24.96,-9.9 7.49,-7.11 10.44,-15.91 10.45,-25.87 l 0.04,-36.81 -54.56,-0.04 0.03,-61.73 c 0.01,-9.89 -3.31,-18.18 -10.54,-25.34 -6.49,-6.42 -14.08,-10.37 -23.56,-10.37 l -38.23,-0.03 -0.27,380.45 c -0.02,29.03 8.45,53 42.29,55.66 28.07,2.2 56.43,3.13 84.6,1.9 z"
   id="path39"
   inkscape:connector-curvature="0"
   style="fill:#1a3161" />
      <path
   class="fil0"
   d="m 1625.47,241.4 -0.12,97.11 c -0.08,67.13 -54.22,122.01 -120.31,121.93 l -48.29,-0.06 c -66.09,-0.08 -120.09,-55.1 -120.01,-122.23 l 0.12,-97.11 h -0.03 l 0.04,-10.45 0.04,-31.43 c 0,-1.68 0.04,-3.35 0.11,-5.01 l 0.27,-68.05 c 0.17,-2.21 2.55,-3.6 4.69,-2.81 17.48,8.24 44.07,19.77 56.07,33.99 9.68,11.48 12.19,25.89 12.43,40.19 l -0.01,10.59 -0.14,33.07 -0.31,74.91 c -0.01,2.69 0.09,5.32 0.31,7.91 v 1.71 c -0.05,41.89 33.11,61.01 70.2,61.15 37.08,0.13 72.53,-16.92 72.58,-60.97 l 0.08,-68.51 0.44,-102.37 c 0.04,-9.84 3.29,-18.25 10.27,-25.54 l 0.3,-0.31 0.3,-0.3 c 7.01,-6.89 15.08,-9.59 24.64,-9.58 h 0.04 l 6.65,0.03 30.13,0.11 -0.48,122.05 z"
   id="path41"
   inkscape:connector-curvature="0"
   style="fill:#1a3161" />
      <path
   class="fil0"
   d="m 2930.29,303.86 c -0.07,-52.04 -4.81,-99.67 -41.91,-139.41 l -0.1,-0.1 c -32.9,-33.32 -62.67,-43.53 -108.78,-43.59 -44.53,-0.06 -86.71,11.52 -118.16,45.08 -31.37,33.49 -41.13,78.53 -41.19,123.37 -0.06,46.18 9.74,93 42.27,127.4 31.57,33.39 73.39,45.36 118.09,45.42 36.68,0.05 73.43,-7.14 104.33,-28.39 19.14,-12.58 33.91,-29.36 44.16,-49.73 l 0.13,-0.26 c 0.68,-1.51 1.03,-3.14 1.04,-4.8 0.01,-7.29 -6.45,-12.49 -13.38,-12.49 l -56.96,-0.07 c -4.13,0 -8.15,1.78 -10.77,5.04 l -0.02,0.03 c -14.09,20.73 -37.96,32.65 -62.7,32.62 l -8.8,-0.01 c -39.66,-0.05 -74.85,-31.05 -74.8,-72.13 l 0.03,-25.33 178.29,-0.32 48.12,0.06 c 0.48,0 0.93,-0.4 0.98,-0.89 l 0.15,-1.49 z m -69.25,-55.43 -158.11,-0.2 2.07,-9.85 c 3.2,-15.24 9.98,-28.8 21.48,-39.4 15.59,-14.36 34.99,-20.11 55.79,-20.09 21.03,0.03 41.92,5.12 57.29,20.46 10.61,10.6 16.44,24.66 19.44,39.23 l 2.03,9.84 z"
   id="path43"
   inkscape:connector-curvature="0"
   style="fill:#1a3161" />
     </g>
     <path
   class="fil0"
   d="m 2918.96,124.63 v 0 l 0.06,-49.59 16.35,0.02 c 5.6,0.01 9.65,0.45 12.15,1.36 2.5,0.92 4.48,2.53 5.98,4.81 1.48,2.3 2.22,4.72 2.21,7.28 0,3.63 -1.25,6.78 -3.73,9.46 -2.49,2.7 -5.79,4.19 -9.89,4.52 1.68,0.73 3.03,1.61 4.03,2.63 1.91,1.97 4.25,5.25 7.04,9.86 l 5.79,9.7 -9.38,-0.01 -4.21,-7.82 c -3.32,-6.14 -5.97,-10 -8.01,-11.55 -1.4,-1.15 -3.45,-1.72 -6.16,-1.72 l -4.5,-0.01 -0.03,21.06 -7.69,-0.01 z m 7.72,-27.89 v 0 l 9.32,0.01 c 4.44,0.01 7.49,-0.7 9.11,-2.07 1.62,-1.38 2.44,-3.22 2.45,-5.51 0,-1.46 -0.4,-2.78 -1.17,-3.95 -0.79,-1.15 -1.86,-2.03 -3.24,-2.59 -1.4,-0.59 -3.98,-0.85 -7.73,-0.86 l -8.72,-0.01 z"
   id="path47"
   inkscape:connector-curvature="0"
   style="fill:#1a3161" />
    </g>
   </g>
</svg>